# xmcd CD database file
#
# Track frame offsets:
#	150
#	27827
#	57915
#	77100
#	99350
#	117715
#	136950
#	158672
#	174992
#	196167
#	210087
#	221957
#	235335
#	247220
#	257697
#	271537
#	281947
#	294295
#	307127
#	317647
#	330117
#
# Disc length: 4574 seconds
#
# Revision: 0
# Processed by: cddbd v1.4PL0 Copyright (c) Steve Scherf et al.
# Submitted via: CDex 1.40Release
#
DISCID=2d11dc15
DTITLE=Willie Dixon - Poet of the Blues
DYEAR=1998
DGENRE=Blues
TTITLE0=Back door man
TTITLE1=I can't quit you baby
TTITLE2=The seventh son
TTITLE3=Spoonful
TTITLE4=I ain't superstitious
TTITLE5=You shook me
TTITLE6=I'm your hoochie coochie man
TTITLE7=Little red rooster
TTITLE8=The same thing
TTITLE9=Big 3 stomp
TTITLE10=Tell that woman
TTITLE11=I ain't gonna be your monkey man
TTITLE12=It's all over now
TTITLE13=You don't love me no more
TTITLE14=If the sea was whiskey
TTITLE15=O.C. Bounce
TTITLE16=Money tree Blues
TTITLE17=No one to love me
TTITLE18=Cool kind woman Blues
TTITLE19=Juice-head bartender
TTITLE20=Signifyng monkey
EXTD=YEAR: 1998 ID3G: 0
EXTT0=
EXTT1=
EXTT2=
EXTT3=
EXTT4=
EXTT5=
EXTT6=
EXTT7=
EXTT8=
EXTT9=
EXTT10=
EXTT11=
EXTT12=
EXTT13=
EXTT14=
EXTT15=
EXTT16=
EXTT17=
EXTT18=
EXTT19=
EXTT20=
PLAYORDER=
